<svg xmlns="http://www.w3.org/2000/svg" data-name="Слой 1" viewBox="50 0 40 125" x="0px" y="0px" transform="rotate(180)"><title>brackets</title><g><path fill="#ffffff" d="M73.46368,49.99686a19.67753,19.67753,0,0,0-3.838,12.94889c0.156,4.57126.44991,9.13774,0.617,13.70874A37.27941,37.27941,0,0,1,69.12692,88.529a8.62747,8.62747,0,0,1-5.9209,6.22833c-0.81209.25941-2.19794,0.48923-1.77542,1.59645,0.49973,1.30953,1.617.26906,2.43907-.007,4.34211-1.4581,6.41152-4.67738,7.2124-9.03538,0.94772-5.15724.66889-10.29576,0.25182-15.46605-0.405-5.02159-.76379-10.07077.53908-15.02559a14.61347,14.61347,0,0,1,1.67383-3.8499,7.90875,7.90875,0,0,1,1.9953-1.59085,1.92116,1.92116,0,0,0,.69976-0.71629,0.91122,0.91122,0,0,0-.38058-0.76677c-4.44378-2.66687-5.8-6.969-6.19064-11.74334-0.4986-6.09393-.85751-12.19971-1.39556-18.28986A32.90033,32.90033,0,0,0,65.2321,8.92C64.03292,6.33353,61.79529,4.62648,59.466,3.09622a2.64957,2.64957,0,0,0-1.21951-.04388,2.36975,2.36975,0,0,0,.44538,1.10651c5.19526,3.01648,6.99492,8.03618,7.79781,13.51341a103.29879,103.29879,0,0,1,.84766,10.69217c0.21074,5.082.39587,10.19356,1.98257,15.03848,0.7086,2.16371,2.38979,4.00986,3.639,5.99426A5.3762,5.3762,0,0,0,73.46368,49.99686Z"/></g></svg>