<svg xmlns="http://www.w3.org/2000/svg" xmlns:xlink="http://www.w3.org/1999/xlink" version="1.1" x="0px" y="0px" viewBox="30 0 30 125" style="enable-background:new 0 0 100 100;" xml:space="preserve"><path fill="#ffffff" d="M62.8123779,47.3237915c0.0166016,0.5522461-0.4178467,1.0178223-0.9697266,1.0292969  c-7.2755737,0.1517334-19.5316772,1.484314-21.1567383,1.6430664c-0.4937744,0.0482788-0.9267578-0.3691406-0.9907227-0.8745117  c-0.0693359-0.5483398,0.3188477-1.0483398,0.8666992-1.1176758c7.0136719-0.8857422,14.1538086-1.440918,21.2211914-1.6499023  C62.3641357,46.3228149,62.7962646,46.7720337,62.8123779,47.3237915z M40.4220581,44.1490479  c1.625061-0.1588135,13.8812256-1.491333,21.1567383-1.6430664c0.5518799-0.0114746,0.9863281-0.4770508,0.9697266-1.0292969  c-0.0161133-0.5517578-0.4482422-1.0009766-1.0292969-0.9697266c-7.0673828,0.2089844-14.2075195,0.7641602-21.2211914,1.6499023  c-0.5478516,0.0693359-0.9360352,0.5693359-0.8666992,1.1176758C39.4953003,43.7799072,39.9283447,44.1973267,40.4220581,44.1490479  z"/></svg>