<svg xmlns="http://www.w3.org/2000/svg" data-name="Layer 1" viewBox="0 0 100 125" x="0px" y="0px" transform="rotate(180)"><title>Arrow</title><path fill="#ffffff" d="M83.94,48c-.63-.1-1.27-.19-1.9-.3-1.58-.29-3.15-.61-4.73-.86-1-.16-2.07-.22-3.11-.34-.31,0-.62-.08-.93-.13-.47-.07-.71-.28-.68-.57s.31-.45.79-.39l2.85.4c2.14.33,4.28.7,6.42,1a65,65,0,0,1,7.19,1.62c1.15.29,2.32.46,3.48.71a8.21,8.21,0,0,1,1.68.54l-.92.27c-1.68.46-3.36.94-5.06,1.38-2.27.6-4.56,1.17-6.84,1.74a18.31,18.31,0,0,0-3.41,1.38,2.87,2.87,0,0,1-.4.18.45.45,0,0,1-.54-.19.47.47,0,0,1,.09-.63,2.34,2.34,0,0,1,.6-.33l4.65-1.84a3,3,0,0,0,.75-.35l-.44,0c-1.79,0-3.59,0-5.38,0-2.6-.06-5.21-.19-7.81-.26-1.12,0-2.25,0-3.38,0-3.58,0-7.17-.07-10.75-.08-2.71,0-5.42,0-8.13,0s-5.5.06-8.25.05-5.34-.1-8-.11c-3,0-6,0-9.07,0s-6.29.09-9.44.21c-2,.08-4.07.29-6.11.43a3.09,3.09,0,0,1-.68,0,1.65,1.65,0,0,1,.12-3.28,7.22,7.22,0,0,1,.93,0c2.85.16,5.7.4,8.55.46,4.74.1,9.47.11,14.2.1,2.31,0,4.63-.14,6.94-.17,2.54,0,5.09,0,7.63,0,5,0,10,0,15.07,0,3.42,0,6.84-.05,10.26-.13,2.54-.06,5.08-.23,7.62-.31,1.87,0,3.75,0,5.62-.06h.5Z"/><path fill="#ffffff" d="M77.38,47.14c-4.92-1.06-9.84-2.08-14.74-3.2a14.94,14.94,0,0,1-3.33-1.33c-.31-.16-.64-.94-.5-1.18a2.25,2.25,0,0,1,1.27-1c.41-.13.93.12,1.4.21l29,5.5a12.37,12.37,0,0,1,2.8.62,7.45,7.45,0,0,1,1.7,1.5c-.54.52-1,1.32-1.64,1.52-2.29.71-4.65,1.18-7,1.83q-13.35,3.77-26.68,7.57a7.7,7.7,0,0,1-3.4.34c8.7-3.88,18-6,26.82-9.57C57.05,51,31,51.63,5,49,29.1,46.25,53.26,46.65,77.38,47.14Z"/></svg>