<svg xmlns="http://www.w3.org/2000/svg" data-name="Layer 1" viewBox="0 0 100 125" x="0px" y="0px "><title>Arrow</title><path fill ="#ffffff" d="M5,45.39c11.49,1.57,23,3,34.64,2.46,9.66-.41,19.32-1,29-1.48a39.23,39.23,0,0,0,8.63-1L65.46,37.58l.34-.82a9.8,9.8,0,0,1,1.73.33Q78.87,41.5,90.2,46a13.8,13.8,0,0,1,3.68,2.09c1.56,1.29,1.49,2.69-.21,3.82a53.09,53.09,0,0,1-5.25,2.85c-5.07,2.58-10.16,5.13-15.22,7.73-1.13.58-2.18,1.43-3.88-.13,2.49-4.2,7.49-5.58,11.39-9.53C54.69,52,29.59,51.14,5,45.39Z"/></svg>